<svg width="71" height="75" viewBox="0 0 71 75" fill="none" xmlns="http://www.w3.org/2000/svg">
<path d="M47.125 35.625V12.375L35.5 0.75L23.875 12.375V20.125H0.625V74.375H70.375V35.625H47.125ZM16.125 66.625H8.375V58.875H16.125V66.625ZM16.125 51.125H8.375V43.375H16.125V51.125ZM16.125 35.625H8.375V27.875H16.125V35.625ZM39.375 66.625H31.625V58.875H39.375V66.625ZM39.375 51.125H31.625V43.375H39.375V51.125ZM39.375 35.625H31.625V27.875H39.375V35.625ZM39.375 20.125H31.625V12.375H39.375V20.125ZM62.625 66.625H54.875V58.875H62.625V66.625ZM62.625 51.125H54.875V43.375H62.625V51.125Z" fill="#727272"/>
</svg>
