<svg width="84" height="84" viewBox="0 0 84 84" fill="none" xmlns="http://www.w3.org/2000/svg">
<path d="M19.8023 64.0689C15.1626 59.2915 15.2745 51.6367 20.0519 46.997L31.2271 36.1439L26.0718 30.8357L14.8967 41.6888C7.18583 49.1774 7.00546 61.5132 14.4941 69.2241C21.9827 76.9349 34.3185 77.1153 42.0294 69.6267L53.2045 58.7736L48.0493 53.4654L36.8742 64.3185C32.0968 68.9582 24.442 68.8463 19.8023 64.0689ZM33.9701 55.7383L56.3204 34.0321L50.8939 28.4445L28.5436 50.1507L33.9701 55.7383ZM42.8346 14.5561L31.6594 25.4092L36.8146 30.7174L47.9898 19.8643C52.7672 15.2246 60.422 15.3365 65.0617 20.1139C69.7014 24.8913 69.5895 32.5461 64.8121 37.1858L53.6369 48.0389L58.7921 53.3471L69.9673 42.494C77.6781 35.0054 77.8585 22.6696 70.3699 14.9587C62.8813 7.24785 50.5455 7.06748 42.8346 14.5561Z" fill="#555555"/>
</svg>
