<svg width="119" height="90" viewBox="0 0 119 90" fill="none" xmlns="http://www.w3.org/2000/svg">
<path d="M30 30.25C16.2 30.25 5 42.01 5 56.5C5 70.99 16.2 82.75 30 82.75C43.8 82.75 55 70.99 55 56.5C55 42.01 43.8 30.25 30 30.25ZM27.5 77.3162C17.625 76.03 10 67.21 10 56.5C10 54.8725 10.2 53.3237 10.525 51.8012L22.5 64.375V67C22.5 69.8875 24.75 72.25 27.5 72.25V77.3162ZM44.75 70.6487C44.1 68.5225 42.25 67 40 67H37.5V59.125C37.5 57.6812 36.375 56.5 35 56.5H20V51.25H25C26.375 51.25 27.5 50.0687 27.5 48.625V43.375H32.5C35.25 43.375 37.5 41.0125 37.5 38.125V37.0487C44.825 40.1725 50 47.7062 50 56.5C50 61.96 48 66.9212 44.75 70.6487Z" fill="#676767"/>
<path d="M85.4729 53.2076H82.5976L81.5785 52.2249C85.1454 48.0756 87.2928 42.6888 87.2928 36.8289C87.2928 23.7623 76.7012 13.1708 63.6347 13.1708C50.5681 13.1708 39.9766 23.7623 39.9766 36.8289C39.9766 49.8955 50.5681 60.487 63.6347 60.487C69.4946 60.487 74.8814 58.3396 79.0307 54.7727L80.0134 55.7918V58.6672L98.2119 76.8293L103.635 71.4061L85.4729 53.2076ZM63.6347 53.2076C54.5718 53.2076 47.256 45.8918 47.256 36.8289C47.256 27.766 54.5718 20.4502 63.6347 20.4502C72.6976 20.4502 80.0134 27.766 80.0134 36.8289C80.0134 45.8918 72.6976 53.2076 63.6347 53.2076Z" fill="#676767"/>
<path fill-rule="evenodd" clip-rule="evenodd" d="M80.0132 58.6671V55.7917L79.0305 54.7726C74.8812 58.3395 69.4944 60.4869 63.6345 60.4869C50.5679 60.4869 39.9764 49.8954 39.9764 36.8288C39.9764 23.7623 50.5679 13.1707 63.6345 13.1707C76.7011 13.1707 87.2926 23.7623 87.2926 36.8288C87.2926 42.6888 85.1452 48.0755 81.5783 52.2248L82.5974 53.2075H85.4728L103.635 71.4061L98.2117 76.8293L80.0132 58.6671ZM85.2372 51.0124C87.9258 46.9319 89.4877 42.0518 89.4877 36.8288C89.4877 22.5499 77.9134 10.9756 63.6345 10.9756C49.3556 10.9756 37.7812 22.5499 37.7812 36.8288C37.7812 51.1077 49.3556 62.6821 63.6345 62.6821C68.8574 62.6821 73.7375 61.1202 77.8181 58.4316V59.5776L98.2133 79.9321L106.738 71.4076L87.0265 51.6569L85.4728 53.2075V51.0124H85.2372ZM49.4509 36.8288C49.4509 44.6794 55.7839 51.0124 63.6345 51.0124C71.485 51.0124 77.8181 44.6794 77.8181 36.8288C77.8181 28.9783 71.485 22.6453 63.6345 22.6453C55.7839 22.6453 49.4509 28.9783 49.4509 36.8288ZM47.2558 36.8288C47.2558 45.8917 54.5716 53.2075 63.6345 53.2075C72.6974 53.2075 80.0132 45.8917 80.0132 36.8288C80.0132 27.7659 72.6974 20.4501 63.6345 20.4501C54.5716 20.4501 47.2558 27.7659 47.2558 36.8288Z" fill="white"/>
</svg>
